<?xml version="1.0" encoding="UTF-8" standalone="no"?>
<svg
   version="1.1"
   width="1066.5598pt"
   height="599.99982pt"
   id="svg21"
   viewBox="0 0 1066.5598 599.99982"
   sodipodi:docname="AIBAPT (curvas).cdr"
   xmlns:inkscape="http://www.inkscape.org/namespaces/inkscape"
   xmlns:sodipodi="http://sodipodi.sourceforge.net/DTD/sodipodi-0.dtd"
   xmlns:xlink="http://www.w3.org/1999/xlink"
   xmlns="http://www.w3.org/2000/svg"
   xmlns:svg="http://www.w3.org/2000/svg">
  <sodipodi:namedview
     id="namedview21"
     pagecolor="#ffffff"
     bordercolor="#000000"
     borderopacity="0.25"
     inkscape:showpageshadow="2"
     inkscape:pageopacity="0.0"
     inkscape:pagecheckerboard="0"
     inkscape:deskcolor="#d1d1d1"
     inkscape:document-units="pt" />
  <defs
     id="defs2">
    <radialGradient
       id="grad1"
       cx="0.5"
       cy="0.5"
       r="1">
      <stop
         offset="0%"
         stop-color="#ffffff"
         stop-opacity="1.0000"
         id="stop1" />
      <stop
         offset="100%"
         stop-color="#f2f2f2"
         stop-opacity="1.0000"
         id="stop2" />
    </radialGradient>
  </defs>
  <path
     d="m -1e-4,-2e-4 v 525.0003 h 1066.56 V -2e-4 Z"
     style="fill:url(#grad1)"
     id="path2" />
  <path
     d="m -1e-4,525.0002 v 74.9999 h 1066.56 v -74.9999 z"
     style="fill:#333333;fill-rule:evenodd"
     id="path3" />
  <g
     id="Layer1000">
    <path
       d="m 262.1869,568.6563 c -0.3683,0.0638 -0.7042,0.112 -1.008,0.144 -0.3042,0.032 -0.6001,0.0479 -0.8881,0.0479 -0.288,0 -0.62,-0.0201 -0.9961,-0.0601 -0.3759,-0.04 -0.796,-0.0998 -1.26,-0.18 l 5.3762,-17.136 c 0.4158,-0.0479 0.8039,-0.0879 1.1639,-0.1199 0.36,-0.032 0.7239,-0.0482 1.0919,-0.0482 0.3041,0 0.6361,0.0162 0.9961,0.0482 0.36,0.032 0.7721,0.072 1.2359,0.1199 l 5.3042,17.1601 c -0.9119,0.144 -1.7122,0.216 -2.4001,0.216 -0.3201,0 -0.6401,-0.0159 -0.9601,-0.0479 -0.3198,-0.032 -0.6639,-0.0802 -1.0318,-0.144 l -0.9122,-3.3361 c -0.4479,0.1281 -0.8759,0.2239 -1.2838,0.288 -0.4082,0.0641 -0.8122,0.0961 -1.2121,0.0961 -0.368,0 -0.7441,-0.0281 -1.1279,-0.0842 -0.3841,-0.0558 -0.7841,-0.14 -1.2002,-0.252 z m 3.3599,-12.6723 -1.6081,6.1682 c 0.2721,0.0799 0.5281,0.144 0.7682,0.1919 0.2398,0.0482 0.4878,0.072 0.7438,0.072 0.2721,0 0.54,-0.0198 0.8042,-0.0598 0.2639,-0.0403 0.54,-0.1001 0.828,-0.18 z m 15.0959,4.9442 c 0.4802,0.1278 0.9161,0.284 1.3082,0.468 0.392,0.184 0.7279,0.4201 1.008,0.7081 0.28,0.288 0.5,0.6398 0.6599,1.0559 0.1601,0.4158 0.2401,0.9198 0.2401,1.512 0,0.608 -0.1242,1.1761 -0.3722,1.7039 -0.2478,0.5281 -0.616,0.9842 -1.1038,1.368 -0.4882,0.3841 -1.088,0.688 -1.8,0.9122 -0.7121,0.2239 -1.5322,0.3359 -2.4602,0.3359 -0.7679,0 -1.48,-0.0561 -2.1359,-0.1681 -0.656,-0.112 -1.3522,-0.3039 -2.088,-0.576 0.0799,-1.0879 0.3758,-2.192 0.8881,-3.312 0.5119,0.2401 1.0479,0.4201 1.6078,0.54 0.5601,0.1202 1.1202,0.18 1.6801,0.18 0.1919,0 0.392,-0.008 0.6001,-0.0238 0.208,-0.0162 0.392,-0.0522 0.5519,-0.108 0.1601,-0.0561 0.2919,-0.1321 0.396,-0.2282 0.104,-0.0958 0.1559,-0.2239 0.1559,-0.3838 0,-0.2081 -0.1038,-0.3643 -0.3118,-0.468 -0.2081,-0.104 -0.4482,-0.1962 -0.72,-0.2761 l -1.6322,-0.4561 c -0.8479,-0.2398 -1.552,-0.648 -2.1118,-1.224 -0.5602,-0.576 -0.8402,-1.3601 -0.8402,-2.3519 0,-0.6239 0.1281,-1.192 0.3841,-1.7039 0.2559,-0.5122 0.6159,-0.9482 1.08,-1.3082 0.464,-0.36 1.0119,-0.6361 1.6441,-0.828 0.6318,-0.1919 1.332,-0.288 2.0999,-0.288 0.608,0 1.2719,0.0641 1.9919,0.1919 0.72,0.1281 1.432,0.3121 2.1362,0.5522 -0.0321,0.5119 -0.1361,1.0599 -0.3121,1.6441 -0.1761,0.5839 -0.3759,1.0998 -0.6001,1.548 -0.432,-0.176 -0.9519,-0.3362 -1.5599,-0.4802 -0.6081,-0.144 -1.1679,-0.216 -1.6801,-0.216 -0.7518,0 -1.1279,0.2081 -1.1279,0.6242 0,0.1757 0.0881,0.3118 0.2639,0.4079 0.176,0.0961 0.3761,0.176 0.6001,0.2401 z m 11.2799,0 c 0.4802,0.1278 0.9161,0.284 1.3082,0.468 0.392,0.184 0.7279,0.4201 1.008,0.7081 0.28,0.288 0.5,0.6398 0.6599,1.0559 0.1601,0.4158 0.2401,0.9198 0.2401,1.512 0,0.608 -0.1242,1.1761 -0.3722,1.7039 -0.2478,0.5281 -0.616,0.9842 -1.1038,1.368 -0.4882,0.3841 -1.088,0.688 -1.8,0.9122 -0.7121,0.2239 -1.5322,0.3359 -2.4602,0.3359 -0.7679,0 -1.48,-0.0561 -2.1359,-0.1681 -0.656,-0.112 -1.3521,-0.3039 -2.088,-0.576 0.0799,-1.0879 0.3759,-2.192 0.8881,-3.312 0.5119,0.2401 1.0479,0.4201 1.6078,0.54 0.5601,0.1202 1.1202,0.18 1.6801,0.18 0.1919,0 0.392,-0.008 0.6001,-0.0238 0.208,-0.0162 0.392,-0.0522 0.5519,-0.108 0.1601,-0.0561 0.2919,-0.1321 0.396,-0.2282 0.104,-0.0958 0.1559,-0.2239 0.1559,-0.3838 0,-0.2081 -0.1038,-0.3643 -0.3118,-0.468 -0.2081,-0.104 -0.4482,-0.1962 -0.72,-0.2761 l -1.6322,-0.4561 c -0.8479,-0.2398 -1.552,-0.648 -2.1118,-1.224 -0.5602,-0.576 -0.8402,-1.3601 -0.8402,-2.3519 0,-0.6239 0.1281,-1.192 0.3841,-1.7039 0.2559,-0.5122 0.6159,-0.9482 1.08,-1.3082 0.464,-0.36 1.0119,-0.6361 1.6441,-0.828 0.6318,-0.1919 1.332,-0.288 2.0999,-0.288 0.608,0 1.2719,0.0641 1.9919,0.1919 0.72,0.1281 1.432,0.3121 2.1362,0.5522 -0.0321,0.5119 -0.1361,1.0599 -0.3121,1.6441 -0.1761,0.5839 -0.3759,1.0998 -0.6001,1.548 -0.432,-0.176 -0.9519,-0.3362 -1.5599,-0.4802 -0.6081,-0.144 -1.1679,-0.216 -1.6801,-0.216 -0.7518,0 -1.1279,0.2081 -1.1279,0.6242 0,0.1757 0.0881,0.3118 0.2639,0.4079 0.176,0.0961 0.3761,0.176 0.6001,0.2401 z m 9.36,7.7519 c -0.4159,0.0641 -0.792,0.112 -1.1279,0.144 -0.3362,0.032 -0.6401,0.0482 -0.9122,0.0482 -0.2719,0 -0.576,-0.0162 -0.9119,-0.0482 -0.3359,-0.032 -0.7041,-0.0799 -1.1041,-0.144 v -12.384 c 0.3521,-0.0799 0.7001,-0.1361 1.044,-0.1681 0.3441,-0.0317 0.6761,-0.0479 0.9961,-0.0479 0.3039,0 0.6321,0.0162 0.9839,0.0479 0.3521,0.032 0.6962,0.0882 1.0321,0.1681 z m 7.7278,-12.6241 c 0.7041,0 1.4082,0.0601 2.1121,0.18 0.7041,0.1202 1.3399,0.3722 1.908,0.7563 0.5681,0.3838 1.0321,0.936 1.3921,1.656 0.36,0.72 0.54,1.6719 0.54,2.8559 v 7.1759 c -0.4161,0.0802 -0.792,0.1321 -1.1282,0.1562 -0.3359,0.0238 -0.6318,0.036 -0.8878,0.036 -0.2721,0 -0.576,-0.0122 -0.9122,-0.036 -0.3359,-0.0241 -0.7118,-0.076 -1.1279,-0.1562 v -6.7439 c 0,-0.8481 -0.1599,-1.4562 -0.4799,-1.8241 -0.32,-0.3679 -0.8082,-0.5519 -1.4641,-0.5519 -0.176,0 -0.364,0.0159 -0.5641,0.0479 -0.1998,0.032 -0.324,0.0641 -0.3719,0.0961 v 8.9759 c -0.4159,0.0802 -0.792,0.1321 -1.1279,0.1562 -0.3362,0.0238 -0.6321,0.036 -0.8881,0.036 -0.2721,0 -0.576,-0.0122 -0.9119,-0.036 -0.3362,-0.0241 -0.7121,-0.076 -1.1282,-0.1562 v -11.7839 c 0.5601,-0.1922 1.2402,-0.3801 2.0401,-0.5641 0.7999,-0.184 1.8,-0.2761 2.9999,-0.2761 z m 7.8962,8.5921 c 0,-0.7841 0.1681,-1.4321 0.504,-1.944 0.3359,-0.5119 0.7679,-0.9198 1.296,-1.224 0.5281,-0.3039 1.112,-0.5159 1.7521,-0.6358 0.64,-0.1202 1.2639,-0.18 1.872,-0.18 h 1.4638 c -0.0159,-0.288 -0.0958,-0.5281 -0.2398,-0.72 -0.144,-0.1922 -0.328,-0.3402 -0.5522,-0.4442 -0.2239,-0.104 -0.472,-0.176 -0.7438,-0.216 -0.2721,-0.04 -0.5522,-0.0598 -0.8402,-0.0598 -0.3838,0 -0.832,0.0439 -1.3439,0.1318 -0.512,0.0882 -1.04,0.2282 -1.584,0.4201 -0.144,-0.2721 -0.2679,-0.5202 -0.3719,-0.7441 -0.1041,-0.2239 -0.184,-0.4518 -0.2401,-0.684 -0.0561,-0.2319 -0.0961,-0.472 -0.1199,-0.72 -0.0241,-0.248 -0.036,-0.5321 -0.036,-0.8518 0.7679,-0.2563 1.5318,-0.4482 2.2918,-0.5763 0.7602,-0.1278 1.4442,-0.1919 2.052,-0.1919 0.8322,0 1.584,0.1001 2.2561,0.2999 0.6721,0.2001 1.2441,0.5083 1.7161,0.9241 0.4719,0.4161 0.8359,0.9482 1.0919,1.5962 0.256,0.648 0.3841,1.4199 0.3841,2.3159 v 7.0319 c -0.6081,0.176 -1.3442,0.3521 -2.2082,0.5281 -0.864,0.176 -1.7759,0.2639 -2.736,0.2639 -0.832,0 -1.5959,-0.076 -2.2918,-0.2279 -0.6962,-0.1519 -1.2921,-0.396 -1.7881,-0.7319 -0.4961,-0.3362 -0.8841,-0.7801 -1.1639,-1.332 -0.2801,-0.5522 -0.4201,-1.228 -0.4201,-2.0282 z m 5.6639,1.3442 c 0.144,0 0.3521,-0.0162 0.6242,-0.0482 0.2718,-0.032 0.4719,-0.0638 0.5998,-0.0958 v -2.6402 h -1.368 c -0.5599,0 -1.0318,0.1202 -1.4159,0.36 -0.3841,0.2401 -0.576,0.576 -0.576,1.008 0,0.32 0.072,0.572 0.216,0.756 0.144,0.184 0.324,0.324 0.54,0.4201 0.216,0.0961 0.4481,0.1599 0.6959,0.1919 0.248,0.032 0.4762,0.0482 0.684,0.0482 z m 9.9122,-6.3122 h -3.5521 c -0.08,-0.32 -0.1318,-0.6199 -0.1559,-0.9 -0.0241,-0.2801 -0.036,-0.5479 -0.036,-0.8039 0,-0.256 0.0119,-0.5202 0.036,-0.792 0.0241,-0.2721 0.0759,-0.5681 0.1559,-0.8881 h 11.16 c 0.0802,0.32 0.1321,0.616 0.1562,0.8881 0.0238,0.2718 0.036,0.536 0.036,0.792 0,0.256 -0.0122,0.5238 -0.036,0.8039 -0.0241,0.2801 -0.076,0.58 -0.1562,0.9 h -3.5518 v 9 c -0.4162,0.0641 -0.792,0.112 -1.1282,0.144 -0.3359,0.032 -0.6398,0.0482 -0.9119,0.0482 -0.2719,0 -0.576,-0.0162 -0.9119,-0.0482 -0.3362,-0.032 -0.7042,-0.0799 -1.1041,-0.144 z m 20.3763,8.4481 c -0.2722,0.0961 -0.5962,0.1919 -0.9723,0.288 -0.3759,0.0961 -0.7759,0.1879 -1.1999,0.2761 -0.4241,0.0879 -0.8601,0.1559 -1.3079,0.2038 -0.4482,0.0482 -0.8881,0.072 -1.3201,0.072 -0.8161,0 -1.5999,-0.0638 -2.3519,-0.1919 -0.7521,-0.1281 -1.4123,-0.3881 -1.98,-0.7801 -0.5681,-0.392 -1.0202,-0.9598 -1.3561,-1.7039 -0.3359,-0.7441 -0.504,-1.7399 -0.504,-2.988 v -7.0081 c 0.352,-0.0799 0.6998,-0.1361 1.044,-0.1681 0.3441,-0.0317 0.676,-0.0479 0.9961,-0.0479 0.3038,0 0.6318,0.0162 0.9839,0.0479 0.352,0.032 0.6959,0.0882 1.0321,0.1681 v 6.6722 c 0,0.9598 0.1598,1.6157 0.4799,1.9678 0.32,0.3521 0.8081,0.5281 1.4641,0.5281 0.2718,0 0.4799,-0.008 0.6239,-0.0241 0.144,-0.0159 0.248,-0.032 0.3121,-0.0479 v -9.0961 c 0.352,-0.0799 0.6998,-0.1361 1.044,-0.1681 0.3438,-0.0317 0.676,-0.0479 0.9958,-0.0479 0.3041,0 0.6321,0.0162 0.9842,0.0479 0.352,0.032 0.6959,0.0882 1.0321,0.1681 z m 2.6878,-11.7842 c 0.752,-0.0958 1.5321,-0.1757 2.34,-0.2398 0.8081,-0.0641 1.5721,-0.0961 2.2921,-0.0961 1.936,0 3.3879,0.364 4.356,1.0922 0.968,0.7279 1.4519,1.7478 1.4519,3.06 0,0.4958 -0.0559,0.9278 -0.1678,1.296 -0.112,0.3679 -0.2481,0.684 -0.4082,0.9479 -0.1599,0.2639 -0.328,0.4759 -0.504,0.6361 -0.1758,0.1599 -0.3198,0.288 -0.432,0.3838 l 2.7363,5.2322 c -0.3201,0.0638 -0.6761,0.112 -1.0681,0.144 -0.3921,0.032 -0.7722,0.0479 -1.1401,0.0479 -0.4479,0 -0.8799,-0.0159 -1.296,-0.0479 -0.4159,-0.032 -0.76,-0.0802 -1.0321,-0.144 l -2.664,-5.6642 0.3362,-0.1919 c 0.5598,-0.32 0.9439,-0.6599 1.152,-1.0199 0.208,-0.36 0.3118,-0.7481 0.3118,-1.1642 0,-0.4158 -0.1239,-0.756 -0.3719,-1.0199 -0.2481,-0.2639 -0.6441,-0.396 -1.188,-0.396 -0.3039,0 -0.5361,0.0159 -0.6959,0.0479 v 9.432 c -0.4162,0.0802 -0.792,0.1321 -1.1282,0.1562 -0.3359,0.0238 -0.6319,0.036 -0.8878,0.036 -0.2722,0 -0.5681,-0.0122 -0.8881,-0.036 -0.3201,-0.0241 -0.688,-0.076 -1.1041,-0.1562 z m 12.4322,8.3041 c 0,-0.7841 0.1681,-1.4321 0.504,-1.944 0.3359,-0.5119 0.7679,-0.9198 1.296,-1.224 0.5281,-0.3039 1.112,-0.5159 1.7521,-0.6358 0.64,-0.1202 1.2639,-0.18 1.872,-0.18 h 1.4638 c -0.0159,-0.288 -0.0958,-0.5281 -0.2398,-0.72 -0.144,-0.1922 -0.328,-0.3402 -0.5522,-0.4442 -0.224,-0.104 -0.472,-0.176 -0.7438,-0.216 -0.2722,-0.04 -0.5522,-0.0598 -0.8402,-0.0598 -0.3838,0 -0.832,0.0439 -1.3439,0.1318 -0.512,0.0882 -1.0401,0.2282 -1.584,0.4201 -0.144,-0.2721 -0.2679,-0.5202 -0.3719,-0.7441 -0.1041,-0.2239 -0.184,-0.4518 -0.2401,-0.684 -0.0562,-0.2319 -0.0961,-0.472 -0.1199,-0.72 -0.0241,-0.248 -0.036,-0.5321 -0.036,-0.8518 0.7679,-0.2563 1.5318,-0.4482 2.2918,-0.5763 0.7602,-0.1278 1.4442,-0.1919 2.052,-0.1919 0.8322,0 1.584,0.1001 2.2561,0.2999 0.6721,0.2001 1.2441,0.5083 1.7161,0.9241 0.4719,0.4161 0.8359,0.9482 1.0919,1.5962 0.2559,0.648 0.3841,1.4199 0.3841,2.3159 v 7.0319 c -0.6081,0.176 -1.3442,0.3521 -2.2082,0.5281 -0.864,0.176 -1.7759,0.2639 -2.736,0.2639 -0.832,0 -1.5959,-0.076 -2.2918,-0.2279 -0.6962,-0.1519 -1.2921,-0.396 -1.7881,-0.7319 -0.4961,-0.3362 -0.8842,-0.7801 -1.1639,-1.332 -0.2801,-0.5522 -0.4201,-1.228 -0.4201,-2.0282 z m 5.6639,1.3442 c 0.144,0 0.352,-0.0162 0.6242,-0.0482 0.2718,-0.032 0.4719,-0.0638 0.5998,-0.0958 v -2.6402 h -1.368 c -0.5599,0 -1.0318,0.1202 -1.4159,0.36 -0.3841,0.2401 -0.576,0.576 -0.576,1.008 0,0.32 0.072,0.572 0.216,0.756 0.144,0.184 0.324,0.324 0.54,0.4201 0.216,0.0961 0.4481,0.1599 0.6959,0.1919 0.248,0.032 0.4762,0.0482 0.684,0.0482 z m 17.0402,-6.3842 c 0.0802,0.032 0.216,0.0561 0.4081,0.072 0.1919,0.0162 0.3921,0.0241 0.5999,0.0241 0.6882,0 1.248,-0.2001 1.68,-0.6001 0.432,-0.4 0.648,-1.008 0.648,-1.8238 0,-0.4802 -0.068,-0.8841 -0.204,-1.2121 -0.1358,-0.328 -0.324,-0.5922 -0.5639,-0.792 -0.2401,-0.2001 -0.5201,-0.3402 -0.8401,-0.4201 -0.3198,-0.0799 -0.656,-0.1199 -1.008,-0.1199 -0.0959,0 -0.2078,0 -0.336,0 -0.1278,0 -0.2559,0.008 -0.384,0.0238 z m -4.152,-8.1119 c 0.368,-0.0482 0.9321,-0.1159 1.692,-0.2041 0.76,-0.0879 1.7161,-0.1321 2.8681,-0.1321 0.8479,0 1.7039,0.0802 2.5679,0.2401 0.864,0.1602 1.6441,0.4601 2.34,0.9 0.696,0.4399 1.26,1.0602 1.692,1.8601 0.432,0.7999 0.648,1.84 0.648,3.1201 0,1.1358 -0.172,2.0798 -0.5159,2.8318 -0.3441,0.752 -0.7999,1.3521 -1.368,1.8 -0.568,0.4482 -1.216,0.7682 -1.944,0.9601 -0.7279,0.1919 -1.476,0.288 -2.2441,0.288 -0.3039,0 -0.612,-0.0119 -0.9239,-0.036 -0.3121,-0.0241 -0.532,-0.0522 -0.6601,-0.0839 v 5.5919 c -0.4159,0.0799 -0.792,0.1361 -1.128,0.1681 -0.3359,0.032 -0.648,0.0479 -0.936,0.0479 -0.5601,0 -1.256,-0.072 -2.088,-0.216 z m 12.7202,13.1519 c 0,-0.7841 0.1681,-1.4321 0.504,-1.944 0.3359,-0.5119 0.7679,-0.9198 1.296,-1.224 0.5281,-0.3039 1.1121,-0.5159 1.7521,-0.6358 0.6401,-0.1202 1.264,-0.18 1.872,-0.18 h 1.4638 c -0.0158,-0.288 -0.0958,-0.5281 -0.2398,-0.72 -0.144,-0.1922 -0.3279,-0.3402 -0.5522,-0.4442 -0.2239,-0.104 -0.4719,-0.176 -0.7438,-0.216 -0.2721,-0.04 -0.5522,-0.0598 -0.8402,-0.0598 -0.3838,0 -0.8319,0.0439 -1.3439,0.1318 -0.5119,0.0882 -1.04,0.2282 -1.584,0.4201 -0.144,-0.2721 -0.2678,-0.5202 -0.3719,-0.7441 -0.104,-0.2239 -0.1839,-0.4518 -0.2401,-0.684 -0.0561,-0.2319 -0.0961,-0.472 -0.1199,-0.72 -0.0241,-0.248 -0.036,-0.5321 -0.036,-0.8518 0.7679,-0.2563 1.5319,-0.4482 2.2918,-0.5763 0.7603,-0.1278 1.4443,-0.1919 2.052,-0.1919 0.8323,0 1.584,0.1001 2.2561,0.2999 0.6721,0.2001 1.2442,0.5083 1.7161,0.9241 0.472,0.4161 0.836,0.9482 1.0919,1.5962 0.256,0.648 0.3841,1.4199 0.3841,2.3159 v 7.0319 c -0.608,0.176 -1.3442,0.3521 -2.2082,0.5281 -0.864,0.176 -1.7759,0.2639 -2.736,0.2639 -0.8319,0 -1.5959,-0.076 -2.2918,-0.2279 -0.6962,-0.1519 -1.292,-0.396 -1.7881,-0.7319 -0.496,-0.3362 -0.8841,-0.7801 -1.1639,-1.332 -0.28,-0.5522 -0.4201,-1.228 -0.4201,-2.0282 z m 5.6639,1.3442 c 0.144,0 0.3521,-0.0162 0.6242,-0.0482 0.2719,-0.032 0.472,-0.0638 0.5998,-0.0958 v -2.6402 h -1.368 c -0.5598,0 -1.0318,0.1202 -1.4159,0.36 -0.3841,0.2401 -0.576,0.576 -0.576,1.008 0,0.32 0.072,0.572 0.216,0.756 0.144,0.184 0.324,0.324 0.54,0.4201 0.216,0.0961 0.4482,0.1599 0.6959,0.1919 0.2481,0.032 0.4763,0.0482 0.684,0.0482 z m 11.7601,-9.9842 c 1.296,0 2.4041,0.1519 3.3242,0.4561 0.9199,0.3039 1.6759,0.7319 2.268,1.2841 0.5919,0.5519 1.0239,1.2197 1.296,2.0038 0.2719,0.7841 0.4079,1.656 0.4079,2.6161 0,1.008 -0.14,1.9199 -0.4198,2.736 -0.28,0.8161 -0.7203,1.512 -1.3201,2.088 -0.6001,0.576 -1.3759,1.0199 -2.3281,1.332 -0.9518,0.3121 -2.0999,0.468 -3.4441,0.468 -0.7837,0 -1.4839,-0.0281 -2.0999,-0.0839 -0.6159,-0.0561 -1.26,-0.1321 -1.9321,-0.2282 V 556.344 c 0.6721,-0.0799 1.3842,-0.1559 2.1362,-0.2279 0.7521,-0.072 1.4559,-0.108 2.1118,-0.108 z m -0.1919,9.5522 c 0.0641,0 0.148,0.008 0.252,0.0238 0.1041,0.0162 0.26,0.0241 0.468,0.0241 0.8961,0 1.5642,-0.252 2.0041,-0.756 0.44,-0.504 0.6599,-1.332 0.6599,-2.484 0,-1.0242 -0.216,-1.7719 -0.648,-2.2439 -0.432,-0.4723 -1.0479,-0.7081 -1.8479,-0.7081 -0.1922,0 -0.3679,0.008 -0.5281,0.0241 -0.1598,0.0159 -0.28,0.0317 -0.36,0.0479 z m 9.576,-9.2163 c 0.7521,-0.0958 1.5322,-0.1757 2.34,-0.2398 0.8082,-0.0641 1.5721,-0.0961 2.2921,-0.0961 1.9361,0 3.388,0.364 4.356,1.0922 0.9681,0.7279 1.4519,1.7478 1.4519,3.06 0,0.4958 -0.0558,0.9278 -0.1678,1.296 -0.1119,0.3679 -0.248,0.684 -0.4082,0.9479 -0.1598,0.2639 -0.3279,0.4759 -0.504,0.6361 -0.1757,0.1599 -0.3197,0.288 -0.432,0.3838 l 2.7363,5.2322 c -0.32,0.0638 -0.676,0.112 -1.0681,0.144 -0.392,0.032 -0.7721,0.0479 -1.1401,0.0479 -0.4478,0 -0.8798,-0.0159 -1.296,-0.0479 -0.4158,-0.032 -0.7599,-0.0802 -1.0321,-0.144 l -2.664,-5.6642 0.3362,-0.1919 c 0.5599,-0.32 0.944,-0.6599 1.152,-1.0199 0.2081,-0.36 0.3118,-0.7481 0.3118,-1.1642 0,-0.4158 -0.1238,-0.756 -0.3719,-1.0199 -0.248,-0.2639 -0.644,-0.396 -1.188,-0.396 -0.3038,0 -0.536,0.0159 -0.6959,0.0479 v 9.432 c -0.4161,0.0802 -0.792,0.1321 -1.1282,0.1562 -0.3359,0.0238 -0.6318,0.036 -0.8878,0.036 -0.2721,0 -0.568,-0.0122 -0.8881,-0.036 -0.32,-0.0241 -0.6879,-0.076 -1.1041,-0.1562 z m 12.4322,8.3041 c 0,-0.7841 0.1681,-1.4321 0.504,-1.944 0.3359,-0.5119 0.7679,-0.9198 1.296,-1.224 0.5281,-0.3039 1.1121,-0.5159 1.7521,-0.6358 0.6401,-0.1202 1.264,-0.18 1.872,-0.18 h 1.4638 c -0.0158,-0.288 -0.0958,-0.5281 -0.2398,-0.72 -0.144,-0.1922 -0.328,-0.3402 -0.5522,-0.4442 -0.2239,-0.104 -0.4719,-0.176 -0.7438,-0.216 -0.2721,-0.04 -0.5522,-0.0598 -0.8402,-0.0598 -0.3838,0 -0.8319,0.0439 -1.3439,0.1318 -0.5119,0.0882 -1.04,0.2282 -1.584,0.4201 -0.144,-0.2721 -0.2679,-0.5202 -0.3719,-0.7441 -0.104,-0.2239 -0.184,-0.4518 -0.2401,-0.684 -0.0561,-0.2319 -0.0961,-0.472 -0.1199,-0.72 -0.0241,-0.248 -0.036,-0.5321 -0.036,-0.8518 0.7679,-0.2563 1.5319,-0.4482 2.2918,-0.5763 0.7603,-0.1278 1.4443,-0.1919 2.052,-0.1919 0.8323,0 1.584,0.1001 2.2561,0.2999 0.6721,0.2001 1.2441,0.5083 1.7161,0.9241 0.472,0.4161 0.836,0.9482 1.0919,1.5962 0.256,0.648 0.3841,1.4199 0.3841,2.3159 v 7.0319 c -0.608,0.176 -1.3442,0.3521 -2.2082,0.5281 -0.864,0.176 -1.7759,0.2639 -2.736,0.2639 -0.8319,0 -1.5959,-0.076 -2.2918,-0.2279 -0.6962,-0.1519 -1.292,-0.396 -1.7881,-0.7319 -0.496,-0.3362 -0.8841,-0.7801 -1.1639,-1.332 -0.28,-0.5522 -0.4201,-1.228 -0.4201,-2.0282 z m 5.6639,1.3442 c 0.144,0 0.3521,-0.0162 0.6242,-0.0482 0.2719,-0.032 0.472,-0.0638 0.5998,-0.0958 v -2.6402 h -1.368 c -0.5598,0 -1.0318,0.1202 -1.4159,0.36 -0.3841,0.2401 -0.576,0.576 -0.576,1.008 0,0.32 0.072,0.572 0.216,0.756 0.144,0.184 0.324,0.324 0.54,0.4201 0.216,0.0961 0.4482,0.1599 0.6959,0.1919 0.2481,0.032 0.4762,0.0482 0.684,0.0482 z m -4.824,-13.4881 c 0.3042,-0.3521 0.6922,-0.6559 1.1642,-0.9122 0.472,-0.256 1.012,-0.3838 1.62,-0.3838 0.32,0 0.62,0.0439 0.9,0.1318 0.2801,0.0882 0.572,0.1882 0.8759,0.3002 0.2721,0.112 0.5562,0.212 0.8521,0.2999 0.296,0.0882 0.6041,0.1321 0.9238,0.1321 0.3201,0 0.6041,-0.0439 0.8521,-0.1321 0.2481,-0.0879 0.54,-0.292 0.8759,-0.612 0.2563,0.2721 0.4762,0.5922 0.6602,0.9601 0.184,0.3679 0.332,0.7438 0.4439,1.1279 -0.288,0.3679 -0.6721,0.6761 -1.152,0.9241 -0.4799,0.248 -1,0.3719 -1.5599,0.3719 -0.352,0 -0.688,-0.0479 -1.008,-0.144 -0.32,-0.0961 -0.6242,-0.1919 -0.9122,-0.288 -0.3038,-0.112 -0.5958,-0.212 -0.8759,-0.2999 -0.28,-0.0882 -0.5641,-0.1321 -0.8521,-0.1321 -0.3197,0 -0.612,0.0479 -0.8759,0.144 -0.2639,0.0961 -0.54,0.2959 -0.828,0.6001 -0.2559,-0.2721 -0.4759,-0.5922 -0.6599,-0.9601 -0.184,-0.3679 -0.3322,-0.7441 -0.4442,-1.1279 z m 11.7363,10.0559 c 0,-0.976 0.1318,-1.868 0.396,-2.6759 0.2639,-0.8082 0.6559,-1.5001 1.1758,-2.0761 0.5202,-0.576 1.1642,-1.0199 1.9321,-1.332 0.7679,-0.3121 1.656,-0.468 2.664,-0.468 1.0242,0 1.9199,0.1559 2.6881,0.468 0.7679,0.3121 1.4119,0.756 1.9318,1.332 0.5202,0.576 0.9122,1.2679 1.1761,2.0761 0.2642,0.8079 0.396,1.6999 0.396,2.6759 0,0.9601 -0.1318,1.836 -0.396,2.628 -0.2639,0.792 -0.6559,1.472 -1.1761,2.0401 -0.5199,0.5681 -1.1639,1.004 -1.9318,1.3079 -0.7682,0.3042 -1.6639,0.4561 -2.6881,0.4561 -1.008,0 -1.8961,-0.1519 -2.664,-0.4561 -0.7679,-0.3039 -1.4119,-0.7398 -1.9321,-1.3079 -0.5199,-0.5681 -0.9119,-1.2481 -1.1758,-2.0401 -0.2642,-0.792 -0.396,-1.6679 -0.396,-2.628 z m 8.2559,0 c 0,-1.0239 -0.172,-1.8079 -0.5159,-2.3519 -0.3441,-0.544 -0.868,-0.8161 -1.5721,-0.8161 -0.7038,0 -1.224,0.2721 -1.5599,0.8161 -0.3362,0.544 -0.504,1.328 -0.504,2.3519 0,1.008 0.1678,1.7841 0.504,2.3281 0.3359,0.544 0.8561,0.8161 1.5599,0.8161 0.7041,0 1.228,-0.2721 1.5721,-0.8161 0.3439,-0.544 0.5159,-1.3201 0.5159,-2.3281 z m 24.8885,10.3201 c -0.544,0 -1.2081,-0.072 -1.9922,-0.216 v -22.536 c 0.4,-0.0641 0.76,-0.112 1.08,-0.144 0.32,-0.032 0.616,-0.0482 0.8881,-0.0482 0.2721,0 0.576,0.0162 0.9119,0.0482 0.3362,0.032 0.6962,0.0799 1.08,0.144 v 22.536 c -0.7999,0.144 -1.4559,0.216 -1.9678,0.216 z m 24.2884,-4.2239 c -0.3683,0.0638 -0.7042,0.112 -1.008,0.144 -0.3042,0.032 -0.6001,0.0479 -0.8881,0.0479 -0.288,0 -0.62,-0.0201 -0.9961,-0.0601 -0.3759,-0.04 -0.796,-0.0998 -1.26,-0.18 l 5.3762,-17.136 c 0.4158,-0.0479 0.8039,-0.0879 1.1639,-0.1199 0.36,-0.032 0.7239,-0.0482 1.0919,-0.0482 0.3041,0 0.6361,0.0162 0.9961,0.0482 0.36,0.032 0.7721,0.072 1.2359,0.1199 l 5.3042,17.1601 c -0.9119,0.144 -1.7122,0.216 -2.4001,0.216 -0.3201,0 -0.6401,-0.0159 -0.9601,-0.0479 -0.3198,-0.032 -0.6639,-0.0802 -1.0318,-0.144 l -0.9122,-3.3361 c -0.4479,0.1281 -0.8759,0.2239 -1.2838,0.288 -0.4082,0.0641 -0.8122,0.0961 -1.2121,0.0961 -0.368,0 -0.7441,-0.0281 -1.1279,-0.0842 -0.3841,-0.0558 -0.7841,-0.14 -1.2002,-0.252 z m 3.3599,-12.6723 -1.6081,6.1682 c 0.2721,0.0799 0.5281,0.144 0.7682,0.1919 0.2398,0.0482 0.4878,0.072 0.7438,0.072 0.2721,0 0.54,-0.0198 0.8042,-0.0598 0.2639,-0.0403 0.54,-0.1001 0.828,-0.18 z m 13.0799,6.7201 c 0.0802,0.0162 0.18,0.0281 0.3002,0.036 0.1199,0.008 0.2199,0.0122 0.2999,0.0122 0.5601,0 1.0199,-0.14 1.3799,-0.4201 0.36,-0.2801 0.54,-0.756 0.54,-1.4281 0,-0.576 -0.18,-1.0199 -0.54,-1.332 -0.36,-0.3118 -0.8039,-0.468 -1.332,-0.468 -0.0638,0 -0.1559,0 -0.2758,0 -0.1202,0 -0.2441,0.008 -0.3722,0.0241 z m -3.96,-6.3601 c 0.7361,-0.112 1.4921,-0.1959 2.268,-0.252 0.7761,-0.0558 1.5242,-0.0839 2.2442,-0.0839 0.7358,0 1.4558,0.068 2.16,0.2041 0.7038,0.1361 1.3359,0.3838 1.8958,0.7441 0.5601,0.36 1.0122,0.8558 1.3561,1.4879 0.3441,0.6318 0.5159,1.4519 0.5159,2.4599 0,0.9122 -0.1559,1.6801 -0.468,2.304 -0.3118,0.6242 -0.724,1.1282 -1.2359,1.512 -0.512,0.3841 -1.0919,0.6602 -1.7399,0.828 -0.648,0.1681 -1.3082,0.252 -1.98,0.252 -0.2722,0 -0.504,-0.008 -0.6962,-0.0238 -0.1919,-0.0162 -0.3118,-0.032 -0.36,-0.0482 v 2.952 c -0.4159,0.0802 -0.7878,0.1321 -1.116,0.1562 -0.328,0.0238 -0.62,0.036 -0.8759,0.036 -0.2722,0 -0.5641,-0.0122 -0.8759,-0.036 -0.3121,-0.0241 -0.6761,-0.076 -1.0922,-0.1562 z m 16.4401,8.9762 h 4.536 c 0.0799,0.32 0.1321,0.616 0.1559,0.8881 0.0241,0.2718 0.036,0.536 0.036,0.792 0,0.256 -0.0119,0.5238 -0.036,0.8039 -0.0238,0.2801 -0.076,0.58 -0.1559,0.9 h -8.5921 l 0.0241,-12.4081 c 0.352,-0.0799 0.6998,-0.1361 1.044,-0.1681 0.3441,-0.0317 0.676,-0.0479 0.9961,-0.0479 0.3038,0 0.6318,0.0162 0.9839,0.0479 0.352,0.032 0.6959,0.0882 1.0321,0.1681 z m 10.4879,3.3599 c -0.4159,0.0641 -0.792,0.112 -1.1279,0.144 -0.3362,0.032 -0.6401,0.0482 -0.9122,0.0482 -0.2719,0 -0.576,-0.0162 -0.9119,-0.0482 -0.3359,-0.032 -0.7041,-0.0799 -1.1041,-0.144 v -12.384 c 0.352,-0.0799 0.7001,-0.1361 1.044,-0.1681 0.3441,-0.0317 0.676,-0.0479 0.9961,-0.0479 0.3039,0 0.6321,0.0162 0.9839,0.0479 0.352,0.032 0.6962,0.0882 1.0321,0.1681 z"
       style="fill:#ffffff;fill-rule:evenodd"
       id="path4" />
    <path
       d="m 549.9964,562.5122 c 0,-0.9601 0.1358,-1.84 0.4079,-2.6399 0.2721,-0.8002 0.6721,-1.4842 1.1999,-2.052 0.5281,-0.5681 1.1761,-1.0123 1.944,-1.3323 0.7682,-0.3197 1.6481,-0.4799 2.6402,-0.4799 0.3359,0 0.6559,0.008 0.9598,0.0241 0.3041,0.0159 0.6041,0.0479 0.9,0.0958 0.2962,0.0482 0.6001,0.1202 0.9122,0.216 0.3118,0.0961 0.6599,0.216 1.044,0.36 0.032,0.5443 -0.0162,1.0843 -0.144,1.6203 -0.1281,0.5357 -0.328,1.0599 -0.6001,1.5718 -0.2719,-0.0958 -0.5159,-0.1721 -0.7319,-0.2279 -0.216,-0.0561 -0.4201,-0.1001 -0.612,-0.1321 -0.1922,-0.032 -0.3801,-0.0519 -0.5641,-0.0598 -0.184,-0.008 -0.3799,-0.0122 -0.5879,-0.0122 -0.7682,0 -1.404,0.2282 -1.908,0.684 -0.504,0.4561 -0.756,1.2441 -0.756,2.3641 0,0.5919 0.0759,1.084 0.2279,1.476 0.1519,0.392 0.352,0.6999 0.6001,0.9241 0.248,0.2239 0.536,0.3838 0.864,0.4799 0.3279,0.0961 0.676,0.144 1.044,0.144 0.464,0 0.8679,-0.04 1.2118,-0.1199 0.3441,-0.0802 0.7481,-0.2081 1.2121,-0.3841 0.2721,0.432 0.4881,0.9159 0.648,1.4519 0.1601,0.536 0.2401,1.148 0.2401,1.836 -0.7362,0.288 -1.408,0.472 -2.016,0.5522 -0.6081,0.0799 -1.2161,0.1199 -1.8241,0.1199 -1.0239,0 -1.9279,-0.1519 -2.7119,-0.4561 -0.7841,-0.3039 -1.444,-0.7398 -1.98,-1.3079 -0.5361,-0.5681 -0.94,-1.2481 -1.2121,-2.0401 -0.2721,-0.792 -0.4079,-1.6841 -0.4079,-2.6759 z m 11.2799,2.1359 c 0,-0.7841 0.1681,-1.4321 0.504,-1.944 0.3359,-0.5119 0.7679,-0.9198 1.296,-1.224 0.5281,-0.3039 1.112,-0.5159 1.7521,-0.6358 0.64,-0.1202 1.2639,-0.18 1.872,-0.18 h 1.4638 c -0.0159,-0.288 -0.0958,-0.5281 -0.2398,-0.72 -0.144,-0.1922 -0.328,-0.3402 -0.5522,-0.4442 -0.2239,-0.104 -0.472,-0.176 -0.7438,-0.216 -0.2721,-0.04 -0.5522,-0.0598 -0.8402,-0.0598 -0.3838,0 -0.832,0.0439 -1.3439,0.1318 -0.512,0.0882 -1.04,0.2282 -1.584,0.4201 -0.144,-0.2721 -0.2679,-0.5202 -0.3719,-0.7441 -0.1041,-0.2239 -0.184,-0.4518 -0.2401,-0.684 -0.0561,-0.2319 -0.0961,-0.472 -0.1199,-0.72 -0.0241,-0.248 -0.036,-0.5321 -0.036,-0.8518 0.7679,-0.2563 1.5318,-0.4482 2.2918,-0.5763 0.7602,-0.1278 1.4442,-0.1919 2.052,-0.1919 0.8322,0 1.584,0.1001 2.2561,0.2999 0.6721,0.2001 1.2441,0.5083 1.7161,0.9241 0.4719,0.4161 0.8359,0.9482 1.0919,1.5962 0.256,0.648 0.3841,1.4199 0.3841,2.3159 v 7.0319 c -0.6081,0.176 -1.3442,0.3521 -2.2082,0.5281 -0.864,0.176 -1.7759,0.2639 -2.736,0.2639 -0.832,0 -1.5959,-0.076 -2.2918,-0.2279 -0.6962,-0.1519 -1.2921,-0.396 -1.7881,-0.7319 -0.4961,-0.3362 -0.8841,-0.7801 -1.1639,-1.332 -0.2801,-0.5522 -0.4201,-1.228 -0.4201,-2.0282 z m 5.6639,1.3442 c 0.144,0 0.3521,-0.0162 0.6242,-0.0482 0.2718,-0.032 0.4719,-0.0638 0.5998,-0.0958 v -2.6402 h -1.368 c -0.5599,0 -1.0318,0.1202 -1.4159,0.36 -0.3841,0.2401 -0.576,0.576 -0.576,1.008 0,0.32 0.072,0.572 0.216,0.756 0.144,0.184 0.324,0.324 0.54,0.4201 0.216,0.0961 0.4481,0.1599 0.6959,0.1919 0.248,0.032 0.4762,0.0482 0.684,0.0482 z m 6.9123,-3.4801 c 0,-0.9601 0.1358,-1.84 0.4079,-2.6399 0.2721,-0.8002 0.6721,-1.4842 1.1999,-2.052 0.5281,-0.5681 1.1761,-1.0123 1.944,-1.3323 0.7682,-0.3197 1.648,-0.4799 2.6402,-0.4799 0.3359,0 0.6559,0.008 0.9598,0.0241 0.3041,0.0159 0.604,0.0479 0.9,0.0958 0.2962,0.0482 0.6001,0.1202 0.9122,0.216 0.3118,0.0961 0.6599,0.216 1.044,0.36 0.032,0.5443 -0.0162,1.0843 -0.144,1.6203 -0.1282,0.5357 -0.328,1.0599 -0.6001,1.5718 -0.2719,-0.0958 -0.5159,-0.1721 -0.7319,-0.2279 -0.216,-0.0561 -0.4201,-0.1001 -0.612,-0.1321 -0.1922,-0.032 -0.3802,-0.0519 -0.5641,-0.0598 -0.184,-0.008 -0.3799,-0.0122 -0.5879,-0.0122 -0.7682,0 -1.404,0.2282 -1.908,0.684 -0.504,0.4561 -0.756,1.2441 -0.756,2.3641 0,0.5919 0.0759,1.084 0.2279,1.476 0.1519,0.392 0.352,0.6999 0.6001,0.9241 0.248,0.2239 0.536,0.3838 0.864,0.4799 0.3279,0.0961 0.676,0.144 1.044,0.144 0.464,0 0.8679,-0.04 1.2118,-0.1199 0.3441,-0.0802 0.748,-0.2081 1.2121,-0.3841 0.2721,0.432 0.4881,0.9159 0.648,1.4519 0.1601,0.536 0.2401,1.148 0.2401,1.836 -0.7362,0.288 -1.408,0.472 -2.016,0.5522 -0.6081,0.0799 -1.2161,0.1199 -1.8241,0.1199 -1.0239,0 -1.9279,-0.1519 -2.7119,-0.4561 -0.7841,-0.3039 -1.444,-0.7398 -1.98,-1.3079 -0.5361,-0.5681 -0.94,-1.2481 -1.2121,-2.0401 -0.2721,-0.792 -0.4079,-1.6841 -0.4079,-2.6759 z m 4.4158,8.9521 c -0.1599,0 -0.3359,0.0119 -0.5278,0.036 -0.1922,0.0238 -0.4882,0.0998 -0.8881,0.2279 l -0.4799,-0.4799 2.016,-3.168 h 2.016 l -1.1761,1.8238 c 0.8801,0.032 1.5681,0.2361 2.0639,0.612 0.496,0.3762 0.7441,0.868 0.7441,1.476 0,0.8322 -0.3481,1.4601 -1.044,1.8842 -0.6959,0.424 -1.6359,0.6358 -2.8199,0.6358 -0.368,0 -0.7481,-0.0238 -1.1401,-0.072 -0.3921,-0.0479 -0.7481,-0.1358 -1.0681,-0.2639 0,-0.176 0.04,-0.4241 0.1202,-0.7441 0.0799,-0.3198 0.2078,-0.6078 0.3838,-0.864 0.3041,0.0961 0.58,0.1641 0.828,0.2041 0.248,0.04 0.5241,0.0601 0.828,0.0601 0.4161,0 0.7041,-0.072 0.864,-0.216 0.1601,-0.144 0.2401,-0.3121 0.2401,-0.504 0,-0.1922 -0.08,-0.3481 -0.2401,-0.468 -0.1599,-0.1202 -0.4,-0.18 -0.72,-0.18 z m 6.8641,-6.8162 c 0,-0.7841 0.1681,-1.4321 0.504,-1.944 0.3359,-0.5119 0.7679,-0.9198 1.296,-1.224 0.5281,-0.3039 1.112,-0.5159 1.7521,-0.6358 0.64,-0.1202 1.2639,-0.18 1.872,-0.18 h 1.4638 c -0.0159,-0.288 -0.0958,-0.5281 -0.2398,-0.72 -0.144,-0.1922 -0.328,-0.3402 -0.5522,-0.4442 -0.224,-0.104 -0.472,-0.176 -0.7438,-0.216 -0.2722,-0.04 -0.5522,-0.0598 -0.8402,-0.0598 -0.3838,0 -0.832,0.0439 -1.3439,0.1318 -0.512,0.0882 -1.0401,0.2282 -1.584,0.4201 -0.144,-0.2721 -0.2679,-0.5202 -0.3719,-0.7441 -0.1041,-0.2239 -0.184,-0.4518 -0.2401,-0.684 -0.0561,-0.2319 -0.0961,-0.472 -0.1199,-0.72 -0.0241,-0.248 -0.036,-0.5321 -0.036,-0.8518 0.7679,-0.2563 1.5318,-0.4482 2.2918,-0.5763 0.7602,-0.1278 1.4442,-0.1919 2.052,-0.1919 0.8322,0 1.584,0.1001 2.2561,0.2999 0.6721,0.2001 1.2441,0.5083 1.7161,0.9241 0.4719,0.4161 0.8359,0.9482 1.0919,1.5962 0.2559,0.648 0.3841,1.4199 0.3841,2.3159 v 7.0319 c -0.6081,0.176 -1.3442,0.3521 -2.2082,0.5281 -0.864,0.176 -1.7759,0.2639 -2.736,0.2639 -0.832,0 -1.5959,-0.076 -2.2918,-0.2279 -0.6962,-0.1519 -1.2921,-0.396 -1.7881,-0.7319 -0.4961,-0.3362 -0.8841,-0.7801 -1.1639,-1.332 -0.2801,-0.5522 -0.4201,-1.228 -0.4201,-2.0282 z m 5.6639,1.3442 c 0.144,0 0.352,-0.0162 0.6242,-0.0482 0.2718,-0.032 0.4719,-0.0638 0.5998,-0.0958 v -2.6402 h -1.368 c -0.5599,0 -1.0318,0.1202 -1.4159,0.36 -0.3841,0.2401 -0.576,0.576 -0.576,1.008 0,0.32 0.072,0.572 0.216,0.756 0.144,0.184 0.324,0.324 0.54,0.4201 0.216,0.0961 0.4481,0.1599 0.6959,0.1919 0.248,0.032 0.4762,0.0482 0.684,0.0482 z m -4.824,-13.4881 c 0.3041,-0.3521 0.6922,-0.6559 1.1642,-0.9122 0.4719,-0.256 1.0119,-0.3838 1.62,-0.3838 0.32,0 0.6199,0.0439 0.9,0.1318 0.28,0.0882 0.572,0.1882 0.8759,0.3002 0.2721,0.112 0.5561,0.212 0.8521,0.2999 0.2959,0.0882 0.604,0.1321 0.9238,0.1321 0.32,0 0.604,-0.0439 0.8521,-0.1321 0.248,-0.0879 0.54,-0.292 0.8759,-0.612 0.2562,0.2721 0.4762,0.5922 0.6602,0.9601 0.1839,0.3679 0.3319,0.7438 0.4439,1.1279 -0.288,0.3679 -0.6721,0.6761 -1.152,0.9241 -0.4799,0.248 -1.0001,0.3719 -1.5599,0.3719 -0.3521,0 -0.688,-0.0479 -1.008,-0.144 -0.3201,-0.0961 -0.6242,-0.1919 -0.9122,-0.288 -0.3039,-0.112 -0.5959,-0.212 -0.8759,-0.2999 -0.2801,-0.0882 -0.5641,-0.1321 -0.8521,-0.1321 -0.3198,0 -0.612,0.0479 -0.8759,0.144 -0.2639,0.0961 -0.54,0.2959 -0.828,0.6001 -0.256,-0.2721 -0.476,-0.5922 -0.6599,-0.9601 -0.184,-0.3679 -0.3322,-0.7441 -0.4442,-1.1279 z m 11.7363,10.0559 c 0,-0.976 0.1318,-1.868 0.396,-2.6759 0.2639,-0.8082 0.6559,-1.5001 1.1758,-2.0761 0.5201,-0.576 1.1642,-1.0199 1.9321,-1.332 0.7679,-0.3121 1.656,-0.468 2.664,-0.468 1.0241,0 1.9199,0.1559 2.6881,0.468 0.7679,0.3121 1.4119,0.756 1.9318,1.332 0.5201,0.576 0.9122,1.2679 1.1761,2.0761 0.2642,0.8079 0.396,1.6999 0.396,2.6759 0,0.9601 -0.1318,1.836 -0.396,2.628 -0.2639,0.792 -0.656,1.472 -1.1761,2.0401 -0.5199,0.5681 -1.1639,1.004 -1.9318,1.3079 -0.7682,0.3042 -1.664,0.4561 -2.6881,0.4561 -1.008,0 -1.8961,-0.1519 -2.664,-0.4561 -0.7679,-0.3039 -1.412,-0.7398 -1.9321,-1.3079 -0.5199,-0.5681 -0.9119,-1.2481 -1.1758,-2.0401 -0.2642,-0.792 -0.396,-1.6679 -0.396,-2.628 z m 8.2559,0 c 0,-1.0239 -0.1721,-1.8079 -0.5159,-2.3519 -0.3442,-0.544 -0.868,-0.8161 -1.5721,-0.8161 -0.7039,0 -1.224,0.2721 -1.5599,0.8161 -0.3362,0.544 -0.504,1.328 -0.504,2.3519 0,1.008 0.1678,1.7841 0.504,2.3281 0.3359,0.544 0.856,0.8161 1.5599,0.8161 0.7041,0 1.2279,-0.2721 1.5721,-0.8161 0.3438,-0.544 0.5159,-1.3201 0.5159,-2.3281 z m 15.7201,-2.952 c 0.0802,0.032 0.216,0.0561 0.4082,0.072 0.1919,0.0162 0.392,0.0241 0.5998,0.0241 0.6882,0 1.2481,-0.2001 1.6801,-0.6001 0.432,-0.4 0.648,-1.008 0.648,-1.8238 0,-0.4802 -0.0681,-0.8841 -0.2041,-1.2121 -0.1358,-0.328 -0.324,-0.5922 -0.5638,-0.792 -0.2401,-0.2001 -0.5202,-0.3402 -0.8402,-0.4201 -0.3198,-0.0799 -0.656,-0.1199 -1.008,-0.1199 -0.0958,0 -0.2078,0 -0.3359,0 -0.1279,0 -0.256,0.008 -0.3841,0.0238 z m -4.1519,-8.1119 c 0.3679,-0.0482 0.932,-0.1159 1.692,-0.2041 0.7599,-0.0879 1.7161,-0.1321 2.8681,-0.1321 0.8478,0 1.7039,0.0802 2.5679,0.2401 0.864,0.1602 1.6441,0.4601 2.34,0.9 0.6959,0.4399 1.26,1.0602 1.692,1.8601 0.432,0.7999 0.648,1.84 0.648,3.1201 0,1.1358 -0.1721,2.0798 -0.5159,2.8318 -0.3442,0.752 -0.8,1.3521 -1.368,1.8 -0.5681,0.4482 -1.2161,0.7682 -1.944,0.9601 -0.728,0.1919 -1.476,0.288 -2.2442,0.288 -0.3039,0 -0.612,-0.0119 -0.9238,-0.036 -0.3121,-0.0241 -0.5321,-0.0522 -0.6602,-0.0839 v 5.5919 c -0.4159,0.0799 -0.792,0.1361 -1.1279,0.1681 -0.3359,0.032 -0.648,0.0479 -0.936,0.0479 -0.5602,0 -1.2561,-0.072 -2.088,-0.216 z m 12.6241,11.0639 c 0,-0.976 0.1318,-1.868 0.396,-2.6759 0.2639,-0.8082 0.6559,-1.5001 1.1758,-2.0761 0.5201,-0.576 1.1642,-1.0199 1.9321,-1.332 0.7679,-0.3121 1.656,-0.468 2.664,-0.468 1.0241,0 1.9199,0.1559 2.6881,0.468 0.7679,0.3121 1.4119,0.756 1.9318,1.332 0.5201,0.576 0.9122,1.2679 1.1761,2.0761 0.2642,0.8079 0.396,1.6999 0.396,2.6759 0,0.9601 -0.1318,1.836 -0.396,2.628 -0.2639,0.792 -0.656,1.472 -1.1761,2.0401 -0.5199,0.5681 -1.1639,1.004 -1.9318,1.3079 -0.7682,0.3042 -1.664,0.4561 -2.6881,0.4561 -1.008,0 -1.8961,-0.1519 -2.664,-0.4561 -0.7679,-0.3039 -1.412,-0.7398 -1.9321,-1.3079 -0.5199,-0.5681 -0.9119,-1.2481 -1.1758,-2.0401 -0.2642,-0.792 -0.396,-1.6679 -0.396,-2.628 z m 8.2559,0 c 0,-1.0239 -0.1721,-1.8079 -0.5159,-2.3519 -0.3442,-0.544 -0.868,-0.8161 -1.5721,-0.8161 -0.7039,0 -1.224,0.2721 -1.5599,0.8161 -0.3362,0.544 -0.504,1.328 -0.504,2.3519 0,1.008 0.1678,1.7841 0.504,2.3281 0.3359,0.544 0.856,0.8161 1.5599,0.8161 0.7041,0 1.2279,-0.2721 1.5721,-0.8161 0.3438,-0.544 0.5159,-1.3201 0.5159,-2.3281 z m 12.168,-1.6319 c 0.4802,0.1278 0.9161,0.284 1.3082,0.468 0.392,0.184 0.7279,0.4201 1.008,0.7081 0.28,0.288 0.5,0.6398 0.6599,1.0559 0.1601,0.4158 0.2401,0.9198 0.2401,1.512 0,0.608 -0.1242,1.1761 -0.3722,1.7039 -0.2478,0.5281 -0.616,0.9842 -1.1038,1.368 -0.4882,0.3841 -1.088,0.688 -1.8,0.9122 -0.7121,0.2239 -1.5322,0.3359 -2.4602,0.3359 -0.7679,0 -1.48,-0.0561 -2.1359,-0.1681 -0.656,-0.112 -1.3522,-0.3039 -2.088,-0.576 0.0799,-1.0879 0.3758,-2.192 0.8881,-3.312 0.5119,0.2401 1.0479,0.4201 1.6078,0.54 0.5601,0.1202 1.1202,0.18 1.6801,0.18 0.1919,0 0.392,-0.008 0.6001,-0.0238 0.208,-0.0162 0.392,-0.0522 0.5519,-0.108 0.1601,-0.0561 0.2919,-0.1321 0.396,-0.2282 0.104,-0.0958 0.1559,-0.2239 0.1559,-0.3838 0,-0.2081 -0.1038,-0.3643 -0.3118,-0.468 -0.2081,-0.104 -0.4482,-0.1962 -0.72,-0.2761 l -1.6322,-0.4561 c -0.8479,-0.2398 -1.552,-0.648 -2.1118,-1.224 -0.5602,-0.576 -0.8402,-1.3601 -0.8402,-2.3519 0,-0.6239 0.1281,-1.192 0.3841,-1.7039 0.2559,-0.5122 0.6159,-0.9482 1.08,-1.3082 0.464,-0.36 1.0119,-0.6361 1.6441,-0.828 0.6318,-0.1919 1.332,-0.288 2.0999,-0.288 0.608,0 1.2719,0.0641 1.9919,0.1919 0.72,0.1281 1.432,0.3121 2.1362,0.5522 -0.0321,0.5119 -0.1361,1.0599 -0.3121,1.6441 -0.1761,0.5839 -0.3759,1.0998 -0.6001,1.548 -0.432,-0.176 -0.9519,-0.3362 -1.5599,-0.4802 -0.6081,-0.144 -1.1679,-0.216 -1.6801,-0.216 -0.7518,0 -1.1279,0.2081 -1.1279,0.6242 0,0.1757 0.0881,0.3118 0.2639,0.4079 0.176,0.0961 0.3761,0.176 0.6001,0.2401 z m 9.36,7.7519 c -0.4159,0.0641 -0.792,0.112 -1.1279,0.144 -0.3362,0.032 -0.6401,0.0482 -0.9122,0.0482 -0.2719,0 -0.576,-0.0162 -0.9119,-0.0482 -0.3359,-0.032 -0.7042,-0.0799 -1.1041,-0.144 v -12.384 c 0.352,-0.0799 0.7001,-0.1361 1.044,-0.1681 0.3441,-0.0317 0.676,-0.0479 0.9961,-0.0479 0.3038,0 0.6321,0.0162 0.9839,0.0479 0.352,0.032 0.6962,0.0882 1.0321,0.1681 z m 5.4479,-9 h -3.5521 c -0.08,-0.32 -0.1318,-0.6199 -0.1559,-0.9 -0.0241,-0.2801 -0.036,-0.5479 -0.036,-0.8039 0,-0.256 0.0119,-0.5202 0.036,-0.792 0.0241,-0.2721 0.0759,-0.5681 0.1559,-0.8881 h 11.16 c 0.0802,0.32 0.1321,0.616 0.1562,0.8881 0.0238,0.2718 0.036,0.536 0.036,0.792 0,0.256 -0.0122,0.5238 -0.036,0.8039 -0.0241,0.2801 -0.076,0.58 -0.1562,0.9 h -3.5518 v 9 c -0.4162,0.0641 -0.792,0.112 -1.1282,0.144 -0.3359,0.032 -0.6398,0.0482 -0.9119,0.0482 -0.2719,0 -0.576,-0.0162 -0.9119,-0.0482 -0.3362,-0.032 -0.7042,-0.0799 -1.1041,-0.144 z m 13.5601,9 c -0.4159,0.0641 -0.792,0.112 -1.1279,0.144 -0.3362,0.032 -0.6401,0.0482 -0.9122,0.0482 -0.2719,0 -0.576,-0.0162 -0.9119,-0.0482 -0.3359,-0.032 -0.7042,-0.0799 -1.1041,-0.144 v -12.384 c 0.352,-0.0799 0.7001,-0.1361 1.044,-0.1681 0.3441,-0.0317 0.676,-0.0479 0.9961,-0.0479 0.3038,0 0.6321,0.0162 0.9839,0.0479 0.352,0.032 0.6962,0.0882 1.0321,0.1681 z m 10.2478,-12.384 c 0.1281,-0.032 0.392,-0.0641 0.792,-0.0961 0.4002,-0.0317 0.8081,-0.0479 1.224,-0.0479 0.5281,0 1.0202,0.0162 1.4763,0.0479 0.4558,0.032 0.7718,0.0641 0.9479,0.0961 l -4.7041,12.3602 c -0.3359,0.0799 -0.6761,0.1318 -1.0199,0.1559 -0.3442,0.0241 -0.6761,0.036 -0.9961,0.036 -0.3201,0 -0.648,-0.0119 -0.9839,-0.036 -0.3362,-0.0241 -0.6401,-0.076 -0.9122,-0.1559 l -4.608,-12.3602 c 0.176,-0.032 0.4921,-0.0641 0.9482,-0.0961 0.4558,-0.0317 0.9479,-0.0479 1.476,-0.0479 0.4158,0 0.8319,0.0162 1.2478,0.0479 0.4161,0.032 0.6882,0.0641 0.8161,0.0961 l 2.1841,7.4401 c 0.3679,-1.2319 0.7239,-2.48 1.0678,-3.744 0.3441,-1.264 0.6922,-2.4959 1.044,-3.6961 z m 4.8002,8.352 c 0,-0.7841 0.1681,-1.4321 0.504,-1.944 0.3359,-0.5119 0.7679,-0.9198 1.296,-1.224 0.5281,-0.3039 1.112,-0.5159 1.7521,-0.6358 0.64,-0.1202 1.2639,-0.18 1.872,-0.18 h 1.4638 c -0.0159,-0.288 -0.0958,-0.5281 -0.2398,-0.72 -0.144,-0.1922 -0.328,-0.3402 -0.5522,-0.4442 -0.224,-0.104 -0.472,-0.176 -0.7438,-0.216 -0.2722,-0.04 -0.5522,-0.0598 -0.8402,-0.0598 -0.3838,0 -0.832,0.0439 -1.3439,0.1318 -0.512,0.0882 -1.0401,0.2282 -1.584,0.4201 -0.144,-0.2721 -0.2679,-0.5202 -0.3719,-0.7441 -0.1041,-0.2239 -0.184,-0.4518 -0.2401,-0.684 -0.0562,-0.2319 -0.0961,-0.472 -0.1199,-0.72 -0.0241,-0.248 -0.036,-0.5321 -0.036,-0.8518 0.7679,-0.2563 1.5318,-0.4482 2.2918,-0.5763 0.7602,-0.1278 1.4442,-0.1919 2.052,-0.1919 0.8322,0 1.584,0.1001 2.2561,0.2999 0.6721,0.2001 1.2441,0.5083 1.7161,0.9241 0.4719,0.4161 0.8359,0.9482 1.0919,1.5962 0.2559,0.648 0.3841,1.4199 0.3841,2.3159 v 7.0319 c -0.6081,0.176 -1.3442,0.3521 -2.2082,0.5281 -0.864,0.176 -1.7759,0.2639 -2.736,0.2639 -0.832,0 -1.5959,-0.076 -2.2918,-0.2279 -0.6962,-0.1519 -1.2921,-0.396 -1.7881,-0.7319 -0.4961,-0.3362 -0.8842,-0.7801 -1.1639,-1.332 -0.2801,-0.5522 -0.4201,-1.228 -0.4201,-2.0282 z m 5.6639,1.3442 c 0.144,0 0.352,-0.0162 0.6242,-0.0482 0.2718,-0.032 0.4719,-0.0638 0.5998,-0.0958 v -2.6402 h -1.368 c -0.5599,0 -1.0318,0.1202 -1.4159,0.36 -0.3841,0.2401 -0.576,0.576 -0.576,1.008 0,0.32 0.072,0.572 0.216,0.756 0.144,0.184 0.324,0.324 0.54,0.4201 0.216,0.0961 0.4481,0.1599 0.6959,0.1919 0.248,0.032 0.4762,0.0482 0.684,0.0482 z m 16.9203,-5.8802 c 0,3.3919 1.4241,5.0882 4.272,5.0882 0.512,0 0.9959,-0.0482 1.452,-0.144 0.456,-0.0961 1.0119,-0.256 1.6681,-0.4802 0.5279,1.152 0.8799,2.336 1.0559,3.5521 -0.464,0.176 -0.896,0.32 -1.296,0.432 -0.3999,0.112 -0.784,0.1959 -1.152,0.252 -0.3679,0.0561 -0.7321,0.0961 -1.0921,0.1199 -0.36,0.0241 -0.7319,0.036 -1.116,0.036 -1.3598,0 -2.556,-0.22 -3.5879,-0.6599 -1.032,-0.4399 -1.896,-1.0519 -2.592,-1.836 -0.6961,-0.7841 -1.22,-1.7201 -1.572,-2.808 -0.3521,-1.0879 -0.5281,-2.272 -0.5281,-3.5521 0,-1.2798 0.1839,-2.4678 0.5521,-3.564 0.368,-1.0959 0.9,-2.0441 1.596,-2.844 0.6959,-0.7999 1.5559,-1.4238 2.58,-1.872 1.0239,-0.4479 2.1839,-0.6721 3.4799,-0.6721 0.7681,0 1.4961,0.0561 2.1841,0.1681 0.6879,0.112 1.4561,0.3359 2.304,0.6721 -0.0321,0.6559 -0.152,1.292 -0.36,1.908 -0.2081,0.616 -0.4241,1.156 -0.648,1.62 -0.3201,-0.112 -0.612,-0.2081 -0.876,-0.288 -0.2641,-0.0799 -0.5161,-0.144 -0.756,-0.1922 -0.24,-0.0479 -0.4801,-0.0839 -0.72,-0.108 -0.24,-0.0238 -0.496,-0.036 -0.7681,-0.036 -1.296,0 -2.2998,0.4363 -3.0119,1.3082 -0.712,0.8719 -1.068,2.1719 -1.068,3.8999 z m 8.9282,2.448 c 0,-0.976 0.1318,-1.868 0.396,-2.6759 0.2639,-0.8082 0.656,-1.5001 1.1758,-2.0761 0.5202,-0.576 1.1642,-1.0199 1.9321,-1.332 0.7679,-0.3121 1.656,-0.468 2.664,-0.468 1.0242,0 1.9199,0.1559 2.6881,0.468 0.7679,0.3121 1.412,0.756 1.9318,1.332 0.5202,0.576 0.9122,1.2679 1.1761,2.0761 0.2642,0.8079 0.396,1.6999 0.396,2.6759 0,0.9601 -0.1318,1.836 -0.396,2.628 -0.2639,0.792 -0.6559,1.472 -1.1761,2.0401 -0.5198,0.5681 -1.1639,1.004 -1.9318,1.3079 -0.7682,0.3042 -1.6639,0.4561 -2.6881,0.4561 -1.008,0 -1.8961,-0.1519 -2.664,-0.4561 -0.7679,-0.3039 -1.4119,-0.7398 -1.9321,-1.3079 -0.5198,-0.5681 -0.9119,-1.2481 -1.1758,-2.0401 -0.2642,-0.792 -0.396,-1.6679 -0.396,-2.628 z m 8.2559,0 c 0,-1.0239 -0.172,-1.8079 -0.5159,-2.3519 -0.3441,-0.544 -0.8679,-0.8161 -1.5721,-0.8161 -0.7038,0 -1.224,0.2721 -1.5599,0.8161 -0.3362,0.544 -0.504,1.328 -0.504,2.3519 0,1.008 0.1678,1.7841 0.504,2.3281 0.3359,0.544 0.8561,0.8161 1.5599,0.8161 0.7042,0 1.228,-0.2721 1.5721,-0.8161 0.3439,-0.544 0.5159,-1.3201 0.5159,-2.3281 z m 10.2481,2.7601 h 4.536 c 0.08,0.32 0.1321,0.616 0.1559,0.8881 0.0241,0.2718 0.036,0.536 0.036,0.792 0,0.256 -0.0119,0.5238 -0.036,0.8039 -0.0238,0.2801 -0.0759,0.58 -0.1559,0.9 h -8.5921 l 0.0241,-12.4081 c 0.3521,-0.0799 0.6999,-0.1361 1.044,-0.1681 0.3442,-0.0317 0.6761,-0.0479 0.9961,-0.0479 0.3039,0 0.6319,0.0162 0.9839,0.0479 0.3521,0.032 0.6959,0.0882 1.0321,0.1681 z m 5.5922,-2.7601 c 0,-0.976 0.1318,-1.868 0.396,-2.6759 0.2639,-0.8082 0.656,-1.5001 1.1758,-2.0761 0.5202,-0.576 1.1642,-1.0199 1.9321,-1.332 0.7679,-0.3121 1.656,-0.468 2.664,-0.468 1.0242,0 1.9199,0.1559 2.6881,0.468 0.7679,0.3121 1.412,0.756 1.9318,1.332 0.5202,0.576 0.9122,1.2679 1.1761,2.0761 0.2642,0.8079 0.396,1.6999 0.396,2.6759 0,0.9601 -0.1318,1.836 -0.396,2.628 -0.2639,0.792 -0.6559,1.472 -1.1761,2.0401 -0.5198,0.5681 -1.1639,1.004 -1.9318,1.3079 -0.7682,0.3042 -1.6639,0.4561 -2.6881,0.4561 -1.008,0 -1.8961,-0.1519 -2.664,-0.4561 -0.7679,-0.3039 -1.4119,-0.7398 -1.9321,-1.3079 -0.5198,-0.5681 -0.9119,-1.2481 -1.1758,-2.0401 -0.2642,-0.792 -0.396,-1.6679 -0.396,-2.628 z m 8.2559,0 c 0,-1.0239 -0.172,-1.8079 -0.5159,-2.3519 -0.3441,-0.544 -0.8679,-0.8161 -1.5721,-0.8161 -0.7038,0 -1.224,0.2721 -1.5599,0.8161 -0.3362,0.544 -0.504,1.328 -0.504,2.3519 0,1.008 0.1678,1.7841 0.504,2.3281 0.3359,0.544 0.8561,0.8161 1.5599,0.8161 0.7042,0 1.228,-0.2721 1.5721,-0.8161 0.3439,-0.544 0.5159,-1.3201 0.5159,-2.3281 z m 6.192,-6.2161 c 0.7521,-0.0958 1.5322,-0.1757 2.34,-0.2398 0.8082,-0.0641 1.5721,-0.0961 2.2921,-0.0961 1.9361,0 3.388,0.364 4.356,1.0922 0.9681,0.7279 1.4519,1.7478 1.4519,3.06 0,0.4958 -0.0558,0.9278 -0.1678,1.296 -0.112,0.3679 -0.248,0.684 -0.4082,0.9479 -0.1598,0.2639 -0.3279,0.4759 -0.504,0.6361 -0.1757,0.1599 -0.3197,0.288 -0.432,0.3838 l 2.7363,5.2322 c -0.32,0.0638 -0.6761,0.112 -1.0681,0.144 -0.392,0.032 -0.7721,0.0479 -1.1401,0.0479 -0.4479,0 -0.8799,-0.0159 -1.296,-0.0479 -0.4158,-0.032 -0.7599,-0.0802 -1.0321,-0.144 l -2.664,-5.6642 0.3362,-0.1919 c 0.5599,-0.32 0.944,-0.6599 1.152,-1.0199 0.2081,-0.36 0.3118,-0.7481 0.3118,-1.1642 0,-0.4158 -0.1238,-0.756 -0.3719,-1.0199 -0.248,-0.2639 -0.644,-0.396 -1.188,-0.396 -0.3039,0 -0.536,0.0159 -0.6959,0.0479 v 9.432 c -0.4161,0.0802 -0.792,0.1321 -1.1282,0.1562 -0.3359,0.0238 -0.6318,0.036 -0.8878,0.036 -0.2721,0 -0.568,-0.0122 -0.8881,-0.036 -0.32,-0.0241 -0.6879,-0.076 -1.1041,-0.1562 z m 17.2321,12.3361 c -0.4158,0.0641 -0.792,0.112 -1.1279,0.144 -0.3362,0.032 -0.64,0.0482 -0.9122,0.0482 -0.2718,0 -0.576,-0.0162 -0.9119,-0.0482 -0.3359,-0.032 -0.7041,-0.0799 -1.1041,-0.144 v -12.384 c 0.3521,-0.0799 0.7002,-0.1361 1.044,-0.1681 0.3442,-0.0317 0.6761,-0.0479 0.9961,-0.0479 0.3039,0 0.6321,0.0162 0.9839,0.0479 0.3521,0.032 0.6962,0.0882 1.0321,0.1681 z m 6.9358,-12.672 c 1.296,0 2.4041,0.1519 3.3242,0.4561 0.9199,0.3039 1.6759,0.7319 2.268,1.2841 0.5919,0.5519 1.0239,1.2197 1.296,2.0038 0.2719,0.7841 0.4079,1.656 0.4079,2.6161 0,1.008 -0.14,1.9199 -0.4198,2.736 -0.28,0.8161 -0.7203,1.512 -1.3201,2.088 -0.6001,0.576 -1.3759,1.0199 -2.3281,1.332 -0.9518,0.3121 -2.0999,0.468 -3.4441,0.468 -0.7837,0 -1.4839,-0.0281 -2.0999,-0.0839 -0.6159,-0.0561 -1.26,-0.1321 -1.9321,-0.2282 V 556.344 c 0.6721,-0.0799 1.3842,-0.1559 2.1362,-0.2279 0.7521,-0.072 1.4559,-0.108 2.1118,-0.108 z m -0.1919,9.5522 c 0.0641,0 0.148,0.008 0.252,0.0238 0.1041,0.0162 0.26,0.0241 0.468,0.0241 0.8961,0 1.5642,-0.252 2.0041,-0.756 0.44,-0.504 0.6599,-1.332 0.6599,-2.484 0,-1.0242 -0.216,-1.7719 -0.648,-2.2439 -0.432,-0.4723 -1.0479,-0.7081 -1.8479,-0.7081 -0.1922,0 -0.3679,0.008 -0.5281,0.0241 -0.1598,0.0159 -0.28,0.0317 -0.36,0.0479 z"
       style="fill:#ffffff;fill-rule:evenodd"
       id="path5" />
    <path
       d="m 796.9813,564.6481 c 0,-0.7841 0.1681,-1.4321 0.504,-1.944 0.3359,-0.5119 0.7679,-0.9198 1.296,-1.224 0.5281,-0.3039 1.1121,-0.5159 1.7521,-0.6358 0.6401,-0.1202 1.264,-0.18 1.872,-0.18 h 1.4638 c -0.0158,-0.288 -0.0958,-0.5281 -0.2398,-0.72 -0.144,-0.1922 -0.328,-0.3402 -0.5522,-0.4442 -0.2239,-0.104 -0.4719,-0.176 -0.7438,-0.216 -0.2721,-0.04 -0.5522,-0.0598 -0.8402,-0.0598 -0.3838,0 -0.8319,0.0439 -1.3439,0.1318 -0.5119,0.0882 -1.04,0.2282 -1.584,0.4201 -0.144,-0.2721 -0.2679,-0.5202 -0.3719,-0.7441 -0.104,-0.2239 -0.184,-0.4518 -0.2401,-0.684 -0.0561,-0.2319 -0.0961,-0.472 -0.1199,-0.72 -0.0241,-0.248 -0.036,-0.5321 -0.036,-0.8518 0.7679,-0.2563 1.5319,-0.4482 2.2918,-0.5763 0.7603,-0.1278 1.4443,-0.1919 2.052,-0.1919 0.8323,0 1.584,0.1001 2.2561,0.2999 0.6721,0.2001 1.2441,0.5083 1.7161,0.9241 0.472,0.4161 0.836,0.9482 1.0919,1.5962 0.256,0.648 0.3841,1.4199 0.3841,2.3159 v 7.0319 c -0.608,0.176 -1.3442,0.3521 -2.2082,0.5281 -0.864,0.176 -1.7759,0.2639 -2.736,0.2639 -0.8319,0 -1.5959,-0.076 -2.2918,-0.2279 -0.6962,-0.1519 -1.292,-0.396 -1.7881,-0.7319 -0.496,-0.3362 -0.8841,-0.7801 -1.1639,-1.332 -0.28,-0.5522 -0.4201,-1.228 -0.4201,-2.0282 z m 5.6639,1.3442 c 0.144,0 0.3521,-0.0162 0.6242,-0.0482 0.2719,-0.032 0.472,-0.0638 0.5998,-0.0958 v -2.6402 h -1.368 c -0.5598,0 -1.0318,0.1202 -1.4159,0.36 -0.3841,0.2401 -0.576,0.576 -0.576,1.008 0,0.32 0.072,0.572 0.216,0.756 0.144,0.184 0.324,0.324 0.54,0.4201 0.216,0.0961 0.4482,0.1599 0.6959,0.1919 0.2481,0.032 0.4762,0.0482 0.684,0.0482 z"
       style="fill:#ffffff;fill-rule:evenodd"
       id="path6" />
  </g>
  <g
     id="Layer1001">
    <g
       id="Layer1002">
      <g
         id="Layer1003">
        <defs
           id="defs7">
          <radialGradient
             id="grad2"
             cx="0.34999999"
             cy="0.34999999"
             r="1">
            <stop
               offset="0%"
               stop-color="#94d98d"
               stop-opacity="1.0000"
               id="stop6" />
            <stop
               offset="100%"
               stop-color="#61a65b"
               stop-opacity="1.0000"
               id="stop7" />
          </radialGradient>
        </defs>
        <path
           d="m 429.2939,246.2327 c 11.1919,4.7235 17.7553,11.5909 14.2246,23.1354 -2.6773,-6.2278 -6.0305,-11.6589 -10.5908,-15.6682 4.4968,6.3481 7.2937,11.9232 8.0411,16.5729 -1.5854,-0.4081 -3.0639,-1.1356 -4.4044,-2.0881 -3.8179,-2.7127 -6.5903,-7.1649 -7.7415,-11.461 -1.0406,-3.8837 -0.6809,-7.3316 0.471,-10.491 z"
           style="fill:url(#grad2)"
           id="path7" />
        <defs
           id="defs9">
          <radialGradient
             id="grad3"
             cx="0.34999999"
             cy="0.34999999"
             r="1">
            <stop
               offset="0%"
               stop-color="#94d98d"
               stop-opacity="1.0000"
               id="stop8" />
            <stop
               offset="100%"
               stop-color="#61a65b"
               stop-opacity="1.0000"
               id="stop9" />
          </radialGradient>
        </defs>
        <path
           d="m 446.1784,258.9134 c 4.9925,-2.1796 5.5004,-7.2339 4.3854,-13.3289 -5.619,3.5267 -8.7267,7.6123 -5.6615,13.0748 0.6098,-3.1501 1.6121,-6.0007 3.3176,-8.3156 -1.4592,3.438 -2.1907,6.3323 -2.0415,8.5697 z"
           style="fill:url(#grad3)"
           id="path9" />
        <defs
           id="defs11">
          <radialGradient
             id="grad4"
             cx="0.34999999"
             cy="0.34999999"
             r="1">
            <stop
               offset="0%"
               stop-color="#94d98d"
               stop-opacity="1.0000"
               id="stop10" />
            <stop
               offset="100%"
               stop-color="#61a65b"
               stop-opacity="1.0000"
               id="stop11" />
          </radialGradient>
        </defs>
        <path
           d="m 460.0974,251.3638 c -7.9771,3.2213 -16.8088,9.2532 -14.936,18.9483 l 0.002,0.008 c 0.1552,0.8064 0.3783,1.6387 0.675,2.5056 1.8728,-4.8054 4.428,-9.4754 8.1961,-13.0565 -3.5364,5.3692 -5.6722,10.0439 -6.1128,13.881 9.8203,-2.6314 13.8196,-13.7313 12.1755,-22.2865 z"
           style="fill:url(#grad4)"
           id="path11" />
      </g>
      <defs
         id="defs13">
        <linearGradient
           id="grad5">
          <stop
             offset="0%"
             stop-color="#d9b162"
             stop-opacity="1.0000"
             id="stop12" />
          <stop
             offset="100%"
             stop-color="#ffd47f"
             stop-opacity="1.0000"
             id="stop13" />
        </linearGradient>
        <linearGradient
           xlink:href="#grad5"
           id="grad6"
           x1="0"
           y1="0"
           x2="0"
           y2="1"
           gradientTransform="rotate(-168,0.5,0.5)"
           gradientUnits="objectBoundingBox" />
      </defs>
      <path
         d="m 409.7421,258.5508 c -4.0664,-7.9258 -0.7527,-17.6257 7.3672,-25.7446 6.1459,-6.1451 2.5675,-18.7143 -7.6515,-19.9013 10.1895,-2.7303 25.2217,6.0666 18.142,13.8872 -9.3141,8.9222 -20.7213,16.697 -17.8577,31.7587 z"
         style="fill:url(#grad6)"
         id="path13" />
      <defs
         id="defs15">
        <linearGradient
           id="grad7">
          <stop
             offset="0%"
             stop-color="#d95757"
             stop-opacity="1.0000"
             id="stop14" />
          <stop
             offset="100%"
             stop-color="#ff8c8c"
             stop-opacity="1.0000"
             id="stop15" />
        </linearGradient>
        <linearGradient
           xlink:href="#grad7"
           id="grad8"
           x1="0"
           y1="0"
           x2="0"
           y2="1"
           gradientTransform="rotate(-135,0.5,0.5)"
           gradientUnits="objectBoundingBox" />
      </defs>
      <path
         d="m 447.922,273.6502 c -20.7055,5.5482 -33.1744,-1.9539 -36.386,-13.9405 -6.4664,-24.1327 29.4756,-31.3589 24.8007,-48.8054 -1.6003,-5.9718 -8.1513,-10.234 -14.2372,-8.6035 9.5396,-2.5561 17.7562,2.6942 19.6473,9.752 3.9173,14.6193 -21.6995,25.6366 -16.3532,45.5898 3.2183,12.0111 13.1588,18.5184 22.5284,16.0076 z"
         style="fill:url(#grad8)"
         id="path15" />
    </g>
    <g
       id="Layer1004">
      <defs
         id="defs17">
        <radialGradient
           id="grad9"
           cx="0.38999999"
           cy="0.38999999"
           r="1">
          <stop
             offset="0%"
             stop-color="#94d98d"
             stop-opacity="1.0000"
             id="stop16" />
          <stop
             offset="100%"
             stop-color="#61a65b"
             stop-opacity="1.0000"
             id="stop17" />
        </radialGradient>
      </defs>
      <path
         d="m 447.9488,322.4914 c -3.8641,0.6564 -7.0731,0.9842 -9.6241,0.9842 -2.6987,0 -5.944,-0.3278 -9.7355,-0.9842 v -47.5676 c 5.3138,1.0366 11.7733,0.7518 19.3325,-1.2736 z m -0.0271,-48.8412 z m 92.3764,48.9499 c -1.677,0.2919 -3.208,0.5116 -4.5935,0.6574 -1.3843,0.1454 -2.7348,0.2181 -4.0476,0.2181 -1.3125,0 -2.8269,-0.0921 -4.538,-0.2736 -1.7151,-0.1812 -3.6278,-0.4558 -5.7431,-0.821 l 24.5007,-79.3504 c 1.8965,-0.2181 3.6655,-0.4003 5.3049,-0.546 1.6413,-0.1461 3.2999,-0.2198 4.9766,-0.2198 1.3852,0 2.8993,0.0737 4.5397,0.2198 1.6407,0.1457 3.5193,0.3279 5.6337,0.546 l 24.1732,79.4608 c -4.1569,0.6554 -7.8032,0.9842 -10.9385,0.9842 -1.4573,0 -2.9181,-0.0727 -4.3754,-0.2181 -1.458,-0.1458 -3.0256,-0.3655 -4.703,-0.6574 l -4.1563,-15.2036 c -2.0413,0.5828 -3.992,1.021 -5.8525,1.3125 -1.8579,0.2912 -3.7005,0.4373 -5.5233,0.4373 -1.6771,0 -3.3921,-0.1285 -5.1412,-0.3824 -1.7498,-0.2552 -3.5723,-0.6392 -5.4688,-1.1492 z m 15.3137,-59.0049 -7.3283,28.7665 c 1.2394,0.3645 2.4065,0.6557 3.4992,0.8745 1.0953,0.2185 2.225,0.3289 3.3921,0.3289 1.2382,0 2.4604,-0.0916 3.6638,-0.2737 1.2022,-0.1821 2.4608,-0.4561 3.7732,-0.82 z m -36.2811,35.602 c 0,4.8085 -0.8755,8.7805 -2.6224,11.9132 -1.7498,3.1334 -4.1544,5.6101 -7.2157,7.4323 -3.0597,1.8219 -6.7028,3.0974 -10.929,3.8252 -4.2268,0.7288 -8.8178,1.0934 -13.7727,1.0934 -3.9346,0 -7.4693,-0.1458 -10.6024,-0.4383 -3.1327,-0.2892 -6.522,-0.6551 -10.1647,-1.0914 v -78.1505 c 2.7698,-0.4382 5.7922,-0.8021 9.0717,-1.0943 3.2791,-0.2909 7.1047,-0.437 11.4766,-0.437 4.1543,0 8.0335,0.3474 11.6402,1.0385 3.6077,0.6922 6.7596,1.8583 9.4551,3.4977 2.6967,1.6401 4.828,3.8252 6.3937,6.5577 1.5671,2.7337 2.3523,6.1765 2.3523,10.3293 0,3.4249 -0.7664,6.5408 -2.2965,9.3454 -1.5313,2.8042 -3.4622,4.9737 -5.7938,6.5035 1.6765,0.6554 3.2974,1.5118 4.8644,2.5701 1.5654,1.0551 2.9507,2.3663 4.1531,3.9333 1.2031,1.5664 2.167,3.4438 2.8968,5.6292 0.7284,2.1855 1.0933,4.7005 1.0933,7.5427 z m -36.3987,-10.056 v 18.3615 c 0.5116,0.0734 1.1479,0.1276 1.9125,0.1649 0.7667,0.0361 1.7686,0.0546 3.0064,0.0546 1.3849,0 2.787,-0.1461 4.2096,-0.4376 1.42,-0.2906 2.714,-0.7827 3.8797,-1.4758 1.1655,-0.6918 2.0952,-1.6394 2.7871,-2.8419 0.6921,-1.2015 1.0375,-2.7146 1.0375,-4.5359 0,-3.497 -1.1476,-5.9207 -3.4431,-7.268 -2.2955,-1.3482 -5.2643,-2.0218 -8.9071,-2.0218 z m 0,-15.5206 h 3.0607 c 3.1337,0 5.5747,-0.6379 7.3248,-1.9141 1.7472,-1.2755 2.6227,-3.4785 2.6227,-6.6119 0,-1.531 -0.3097,-2.8055 -0.9291,-3.8265 -0.62,-1.0197 -1.4024,-1.8212 -2.3504,-2.404 -0.9466,-0.584 -2.0043,-0.9833 -3.1704,-1.2024 -1.1661,-0.2182 -2.2955,-0.3285 -3.3873,-0.3285 -0.4379,0 -0.9657,0 -1.5852,0 -0.62,0 -1.1482,0.0379 -1.5858,0.1103 z"
         style="fill:url(#grad9)"
         id="path17" />
      <g
         id="Layer1005">
        <defs
           id="defs19">
          <linearGradient
             id="grad10">
            <stop
               offset="0%"
               stop-color="#578053"
               stop-opacity="1.0000"
               id="stop18" />
            <stop
               offset="100%"
               stop-color="#5a9954"
               stop-opacity="1.0000"
               id="stop19" />
          </linearGradient>
          <linearGradient
             xlink:href="#grad10"
             id="grad11"
             x1="0"
             y1="0"
             x2="0"
             y2="1"
             gradientTransform="rotate(180,0.5,0.5)"
             gradientUnits="objectBoundingBox" />
        </defs>
        <path
           d="m 378.1097,242.9207 c 1.5315,-0.2185 2.9901,-0.3822 4.3759,-0.4919 1.385,-0.1088 2.9165,-0.1645 4.5936,-0.1645 1.4587,0 2.8805,0.0557 4.2663,0.1645 1.3849,0.1088 2.9164,0.2734 4.5936,0.4919 l 24.611,79.8988 c -2.9902,0.4379 -5.9066,0.6564 -8.751,0.6564 -2.7708,0 -5.4687,-0.2185 -8.0937,-0.6564 l -4.3751,-15.7512 h -26.0327 l -4.4848,15.7512 c -2.6251,0.4379 -5.1413,0.6564 -7.5478,0.6564 -2.6979,0 -5.3598,-0.2185 -7.9848,-0.6564 z m 17.5011,50.9127 -9.0783,-34.2865 -9.5164,34.2865 z"
           style="fill:url(#grad11)"
           id="path19" />
        <defs
           id="defs21">
          <linearGradient
             id="grad12">
            <stop
               offset="0%"
               stop-color="#578053"
               stop-opacity="1.0000"
               id="stop20" />
            <stop
               offset="100%"
               stop-color="#5a9954"
               stop-opacity="1.0000"
               id="stop21" />
          </linearGradient>
          <linearGradient
             xlink:href="#grad12"
             id="grad13"
             x1="0"
             y1="0"
             x2="0"
             y2="1"
             gradientTransform="rotate(180,0.5,0.5)"
             gradientUnits="objectBoundingBox" />
        </defs>
        <path
           d="m 598.5434,243.2493 c 3.3544,-0.2917 6.7455,-0.529 10.1726,-0.7106 3.4275,-0.1825 6.8914,-0.2744 10.3916,-0.2744 3.6457,0 7.3463,0.3653 11.1018,1.0947 3.7546,0.7291 7.1457,2.096 10.1727,4.1017 3.0252,2.0053 5.4865,4.7941 7.3833,8.3677 1.8957,3.5729 2.8436,8.2033 2.8436,13.8914 0,5.6872 -0.9479,10.2997 -2.8436,13.8366 -1.8968,3.536 -4.339,6.3257 -7.3293,8.3671 -2.9883,2.0424 -6.3257,3.4281 -10.0084,4.1566 -3.6824,0.7294 -7.3103,1.0944 -10.8833,1.0944 -0.9476,0 -1.8407,-0.0188 -2.6798,-0.0549 -0.838,-0.037 -1.6222,-0.091 -2.3516,-0.1637 v 25.9735 c -1.3857,0.2185 -2.7348,0.3649 -4.0468,0.438 -1.3121,0.0728 -2.589,0.1088 -3.8283,0.1088 -1.1674,0 -2.4452,-0.036 -3.8282,-0.1088 -1.386,-0.0731 -2.8075,-0.2195 -4.2663,-0.438 z m 78.4232,12.5782 H 657.387 c -0.4371,-2.187 -0.6566,-4.4846 -0.6566,-6.8913 0,-2.2598 0.2195,-4.4828 0.6566,-6.6719 h 55.2373 c 0.4371,2.1891 0.6557,4.4121 0.6557,6.6719 0,2.4067 -0.2186,4.7043 -0.6557,6.8913 H 693.045 v 67.1019 c -1.3129,0.1455 -2.6259,0.2734 -3.938,0.3831 -1.312,0.108 -2.5883,0.1637 -3.8276,0.1637 -1.2399,0 -2.5728,-0.036 -3.9928,-0.1088 -1.4227,-0.0731 -2.8624,-0.2195 -4.32,-0.438 z m -62.4536,27.8926 c 0.8752,0.1456 1.6943,0.2195 2.4622,0.2195 0.7646,0 1.6943,0 2.7887,0 1.822,0 3.6091,-0.2374 5.358,-0.7115 1.751,-0.4747 3.3004,-1.2581 4.6495,-2.3516 1.3499,-1.0934 2.4255,-2.5343 3.2277,-4.3202 0.8021,-1.7868 1.2023,-3.9929 1.2023,-6.6179 0,-2.6978 -0.4002,-4.9766 -1.2023,-6.8364 -0.8022,-1.8599 -1.8778,-3.3544 -3.2277,-4.4849 -1.3491,-1.1305 -2.8985,-1.9335 -4.6495,-2.4065 -1.7489,-0.4738 -3.536,-0.7103 -5.358,-0.7103 -0.803,0 -1.5503,0.0179 -2.2427,0.0549 -0.6924,0.0358 -1.6953,0.1267 -3.0082,0.2732 z"
           style="fill:url(#grad13)"
           id="path21" />
      </g>
    </g>
  </g>
</svg>
